<svg width="12" height="13" viewBox="0 0 12 13" fill="none" xmlns="http://www.w3.org/2000/svg">
<g id="vuesax/outline/forbidden-2">
<g id="forbidden-2">
<path id="Vector" d="M7.45 11.875H4.55C4.105 11.875 3.535 11.64 3.225 11.325L1.175 9.27499C0.860003 8.95999 0.625 8.39 0.625 7.95V5.05C0.625 4.605 0.860003 4.03501 1.175 3.72501L3.225 1.675C3.54 1.36 4.11 1.125 4.55 1.125H7.45C7.895 1.125 8.465 1.36 8.775 1.675L10.825 3.72501C11.14 4.04001 11.375 4.61 11.375 5.05V7.95C11.375 8.395 11.14 8.96499 10.825 9.27499L8.775 11.325C8.46 11.64 7.895 11.875 7.45 11.875ZM4.55 1.875C4.305 1.875 3.925 2.03 3.755 2.205L1.705 4.255C1.535 4.43 1.375 4.805 1.375 5.05V7.95C1.375 8.195 1.53 8.575 1.705 8.745L3.755 10.795C3.93 10.965 4.305 11.125 4.55 11.125H7.45C7.695 11.125 8.075 10.97 8.245 10.795L10.295 8.745C10.465 8.56999 10.625 8.195 10.625 7.95V5.05C10.625 4.805 10.47 4.425 10.295 4.255L8.245 2.205C8.07 2.035 7.695 1.875 7.45 1.875H4.55Z" fill="#EA4335"/>
<path id="Vector_2" d="M4.24973 8.62473C4.15473 8.62473 4.05973 8.58972 3.98473 8.51472C3.83973 8.36972 3.83973 8.12973 3.98473 7.98473L7.48473 4.48473C7.62973 4.33973 7.86973 4.33973 8.01473 4.48473C8.15973 4.62973 8.15973 4.86973 8.01473 5.01473L4.51473 8.51472C4.43973 8.58972 4.34473 8.62473 4.24973 8.62473Z" fill="#EA4335"/>
<path id="Vector_3" d="M7.74973 8.62473C7.65473 8.62473 7.55973 8.58972 7.48473 8.51472L3.98473 5.01473C3.83973 4.86973 3.83973 4.62973 3.98473 4.48473C4.12973 4.33973 4.36973 4.33973 4.51473 4.48473L8.01473 7.98473C8.15973 8.12973 8.15973 8.36972 8.01473 8.51472C7.93973 8.58972 7.84473 8.62473 7.74973 8.62473Z" fill="#EA4335"/>
</g>
</g>
</svg>
