<svg width="12" height="13" viewBox="0 0 12 13" fill="none" xmlns="http://www.w3.org/2000/svg">
<g id="vuesax/outline/tick-circle">
<g id="tick-circle">
<path id="Vector" d="M6 11.875C3.035 11.875 0.625 9.465 0.625 6.5C0.625 3.535 3.035 1.125 6 1.125C8.965 1.125 11.375 3.535 11.375 6.5C11.375 9.465 8.965 11.875 6 11.875ZM6 1.875C3.45 1.875 1.375 3.95 1.375 6.5C1.375 9.05 3.45 11.125 6 11.125C8.55 11.125 10.625 9.05 10.625 6.5C10.625 3.95 8.55 1.875 6 1.875Z" fill="#00A559"/>
<path id="Vector_2" d="M5.28973 8.2898C5.18973 8.2898 5.09473 8.2498 5.02473 8.1798L3.60973 6.7648C3.46473 6.6198 3.46473 6.3798 3.60973 6.2348C3.75473 6.0898 3.99473 6.0898 4.13973 6.2348L5.28973 7.3848L7.85973 4.8148C8.00473 4.6698 8.24473 4.6698 8.38973 4.8148C8.53473 4.9598 8.53473 5.1998 8.38973 5.3448L5.55473 8.1798C5.48473 8.2498 5.38973 8.2898 5.28973 8.2898Z" fill="#00A559"/>
</g>
</g>
</svg>
