<svg width="24" height="24" viewBox="0 0 24 24" fill="none" xmlns="http://www.w3.org/2000/svg">
<path d="M11.3941 21.4333L11.3941 21.4332L11.3892 21.4306C9.46733 20.3823 6.12966 19.2826 4.00648 19.004C4.0059 19.0039 4.00532 19.0038 4.00474 19.0038L3.71807 18.9642L3.71808 18.9642L3.7104 18.9632C2.65462 18.8343 1.75977 17.8202 1.75977 16.7395V4.6595C1.75977 4.00477 2.01445 3.42066 2.47675 2.99891C2.94257 2.57396 3.54384 2.36997 4.18504 2.42753L4.18878 2.42784C6.29907 2.60129 9.54263 3.67577 11.3556 4.80404L11.3616 4.80781L11.3678 4.8114L11.6078 4.95142L11.6344 4.96697L11.6628 4.97912C11.7756 5.02747 11.8992 5.04351 11.9919 5.04566C12.0436 5.04686 12.1046 5.04427 12.1685 5.03284C12.2242 5.02289 12.316 5.00048 12.4083 4.94135L12.5648 4.84345L12.5653 4.84315C13.2024 4.44377 14.013 4.04682 14.9135 3.6845C14.9865 3.65653 15.0747 3.66374 15.1524 3.71554C15.2205 3.76094 15.2598 3.8333 15.2598 3.91951V6.5995V7.53062L16.0359 7.0163L16.866 6.46632L16.866 6.46635L16.8709 6.46298C16.9513 6.40836 17.0583 6.40836 17.1386 6.46298L17.1386 6.46301L17.1436 6.46632L17.9736 7.0163L18.7498 7.53062V6.5995V2.77956C18.7498 2.6639 18.8348 2.55684 18.9529 2.53081C19.2232 2.4844 19.4869 2.44822 19.7194 2.42952H19.7195H19.7198H19.72H19.7202H19.7205H19.7207H19.721H19.7212H19.7214H19.7217H19.7219H19.7222H19.7224H19.7227H19.7229H19.7232H19.7234H19.7236H19.7239H19.7241H19.7244H19.7246H19.7249H19.7251H19.7254H19.7256H19.7259H19.7262H19.7264H19.7267H19.7269H19.7272H19.7274H19.7277H19.728H19.7282H19.7285H19.7287H19.729H19.7293H19.7295H19.7298H19.73H19.7303H19.7306H19.7308H19.7311H19.7314H19.7316H19.7319H19.7322H19.7324H19.7327H19.733H19.7332H19.7335H19.7338H19.7341H19.7343H19.7346H19.7349H19.7351H19.7354H19.7357H19.736H19.7362H19.7365H19.7368H19.7371H19.7373H19.7376H19.7379H19.7382H19.7384H19.7387H19.739H19.7393H19.7396H19.7398H19.7401H19.7404H19.7407H19.741H19.7413H19.7415H19.7418H19.7421H19.7424H19.7427H19.7429H19.7432H19.7435H19.7438H19.7441H19.7444H19.7447H19.7449H19.7452H19.7455H19.7458H19.7461H19.7464H19.7467H19.747H19.7472H19.7475H19.7478H19.7481H19.7484H19.7487H19.749H19.7493H19.7495H19.7498H19.7501H19.7504H19.7507H19.751H19.7513H19.7516H19.7519H19.7522H19.7525H19.7527H19.753H19.7533H19.7536H19.7539H19.7542H19.7545H19.7548H19.7551H19.7554H19.7557H19.756H19.7563H19.7565H19.7568H19.7571H19.7574H19.7577H19.758H19.7583H19.7586H19.7589H19.7592H19.7595H19.7598H19.7601H19.7604H19.7606H19.7609H19.7612H19.7615H19.7618H19.7621H19.7624H19.7627H19.763H19.7633H19.7636H19.7639H19.7642H19.7645H19.7647H19.765H19.7653H19.7656H19.7659H19.7662H19.7665H19.7668H19.7671H19.7674H19.7677H19.7679H19.7682H19.7685H19.7688H19.7691H19.7694H19.7697H19.77H19.7703H19.7706H19.7708H19.7711H19.7714H19.7717H19.772H19.7723H19.7726H19.7729H19.7732H19.7734H19.7737H19.774H19.7743H19.7746H19.7749H19.7752H19.7754H19.7757H19.776H19.7763H19.7766H19.7769H19.7771H19.7774H19.7777H19.778H19.7783H19.7786H19.7788H19.7791H19.7794H19.7797H19.78H19.7802H19.7805H19.7808H19.7811H19.7814H19.7816H19.7819H19.7822H19.7825H19.7827H19.783H19.7833H19.7836H19.7838H19.7841H19.7844H19.7847H19.7849H19.7852H19.7855H19.7858H19.786H19.7863H19.7866H19.7868H19.7871H19.7874H19.7876H19.7879H19.7882H19.7884H19.7887H19.789H19.7892H19.7895H19.7898H19.79H19.7903H19.7905H19.7908H19.7911H19.7913H19.7916H19.7918H19.7921H19.7924H19.7926H19.7929H19.7931H19.7934H19.7936H19.7939H19.7941H19.7944H19.7946H19.7949H19.7951H19.7954H19.7956H19.7959H19.7961H19.7964H19.7966H19.7969H19.7971H19.7974H19.7976H19.7978H19.7981H19.7983H19.7986H19.7988H19.799H19.7993H19.7995H19.7998H19.8H19.8002H19.8005H19.8007H19.8009H19.8012H19.8014H19.8016H19.8018H19.8021H19.8023H19.8025H19.8028H19.803H19.8032H19.8034H19.8036H19.8039H19.8041H19.8043H19.8045H19.8047H19.805H19.8052H19.8054H19.8056H19.8058H19.806H19.8062H19.8065H19.8067H19.8069H19.8071H19.8073H19.8075H19.8077H19.8079H19.8081H19.8083H19.8085H19.8087H19.8089H19.8091H19.8093H19.8095H19.8097H19.8099H19.8101H19.8103H19.8105H19.8106H19.8108H19.811H19.8112H19.8114H19.8116H19.8118H19.8119H19.8121H19.8123H19.8125H19.8127H19.8128H19.813H19.8132H19.8134H19.8135H19.8137H19.8139H19.814H19.8142H19.8144H19.8145H19.8147H19.8149H19.815H19.8152H19.8153H19.8155H19.8157H19.8158H19.816H19.8161H19.8163H19.8164H19.8166H19.8167H19.8169H19.817H19.8172H19.8173H19.8174H19.8176H19.8177H19.8179H19.818H19.8181H19.8183H19.8184H19.8185H19.8187H19.8188H19.8189H19.819H19.8192H19.8193H19.8194H19.8195H19.8196H19.8198H19.8403L19.8607 2.42784C20.4521 2.37924 21.0634 2.58236 21.5195 3.00594L21.5195 3.00595L21.5228 3.00892C21.9851 3.43067 22.2397 4.01478 22.2397 4.66951V16.7395C22.2397 17.8281 21.3471 18.8338 20.2796 18.9632L19.9496 19.0032L19.9496 19.0031L19.9448 19.0038C17.8219 19.282 14.4621 20.392 12.5782 21.4318L12.5645 21.4393L12.5513 21.4477C12.4325 21.5233 12.233 21.5795 11.9998 21.5795C11.7737 21.5795 11.5599 21.5261 11.3941 21.4333ZM2.80264 3.36026L2.80263 3.36026L2.80124 3.36154C2.44026 3.69364 2.24976 4.16102 2.24976 4.6595V16.7395C2.24976 17.1768 2.43636 17.5802 2.70037 17.8808C2.96398 18.1808 3.33713 18.4153 3.76028 18.4747L3.76363 18.4751L4.06361 18.5152L4.06368 18.5152C6.25269 18.807 9.64336 19.9176 11.5888 20.9876L11.6074 20.9978L11.6267 21.0064C11.7317 21.0531 11.841 21.0756 11.9299 21.0845C11.9965 21.0912 12.1432 21.1007 12.2854 21.0438L12.3143 21.0322L12.3414 21.0172C14.296 19.9379 17.6936 18.8183 19.8918 18.5257L20.2282 18.4861L20.2307 18.4858C20.6606 18.433 21.0367 18.1949 21.3 17.8935C21.5639 17.5915 21.7498 17.1859 21.7498 16.7495V4.67952C21.7498 4.17472 21.5552 3.72405 21.206 3.38883L21.2061 3.38875L21.1983 3.38156C20.8388 3.05086 20.3569 2.90693 19.8869 2.92952H19.8867H19.8865H19.8862H19.886H19.8857H19.8855H19.8852H19.885H19.8847H19.8844H19.8842H19.8839H19.8837H19.8834H19.8831H19.8829H19.8826H19.8824H19.8821H19.8818H19.8815H19.8813H19.881H19.8807H19.8805H19.8802H19.8799H19.8797H19.8794H19.8791H19.8788H19.8785H19.8783H19.878H19.8777H19.8774H19.8772H19.8769H19.8766H19.8763H19.876H19.8757H19.8754H19.8752H19.8749H19.8746H19.8743H19.874H19.8737H19.8734H19.8731H19.8728H19.8725H19.8722H19.872H19.8717H19.8714H19.8711H19.8708H19.8705H19.8702H19.8699H19.8696H19.8693H19.869H19.8687H19.8684H19.8681H19.8678H19.8675H19.8671H19.8668H19.8665H19.8662H19.8659H19.8656H19.8653H19.865H19.8647H19.8644H19.8641H19.8637H19.8634H19.8631H19.8628H19.8625H19.8622H19.8619H19.8615H19.8612H19.8609H19.8606H19.8603H19.86H19.8596H19.8593H19.859H19.8587H19.8584H19.858H19.8577H19.8574H19.8571H19.8568H19.8564H19.8561H19.8558H19.8555H19.8551H19.8548H19.8545H19.8542H19.8538H19.8535H19.8532H19.8528H19.8525H19.8522H19.8519H19.8515H19.8512H19.8509H19.8505H19.8502H19.8499H19.8496H19.8492H19.8489H19.8486H19.8482H19.8479H19.8476H19.8472H19.8469H19.8466H19.8462H19.8459H19.8456H19.8452H19.8449H19.8446H19.8442H19.8439H19.8436H19.8432H19.8429H19.8426H19.8422H19.8419H19.8415H19.8412H19.8409H19.8405H19.8402H19.8399H19.8395H19.8392H19.8389H19.8385H19.8382H19.8378H19.8375H19.8372H19.8368H19.8365H19.8362H19.8358H19.8355H19.8351H19.8348H19.8345H19.8341H19.8338H19.8335H19.8331H19.8328H19.8324H19.8321H19.8318H19.8314H19.8311H19.8307H19.8304H19.8301H19.8297H19.8294H19.8291H19.8287H19.8284H19.828H19.8277H19.8274H19.827H19.8267H19.8264H19.826H19.8257H19.8253H19.825H19.8247H19.8243H19.824H19.8237H19.8233H19.823H19.8227H19.8223H19.822H19.8217H19.8213H19.821H19.8207H19.8203H19.82H19.8196H19.8193H19.819H19.8186H19.8183H19.818H19.8176H19.8173H19.817H19.8167H19.8163H19.816H19.8157H19.8153H19.815H19.8147H19.8143H19.814H19.8137H19.8134H19.813H19.8127H19.8124H19.812H19.8117H19.8114H19.8111H19.8107H19.8104H19.8101H19.8098H19.8094H19.8091H19.8088H19.8085H19.8081H19.8078H19.8075H19.8072H19.8069H19.8065H19.8062H19.8059H19.8056H19.8053H19.8049H19.8046H19.8043H19.804H19.8037H19.8034H19.803H19.8027H19.8024H19.8021H19.8018H19.8015H19.8012H19.8009H19.8005H19.8002H19.7999H19.7996H19.7993H19.799H19.7987H19.7984H19.7981H19.7978H19.7975H19.7972H19.7969H19.7966H19.7963H19.796H19.7957H19.7954H19.7951H19.7948H19.7945H19.7942H19.7939H19.7936H19.7933H19.793H19.7927H19.7924H19.7921H19.7918H19.7915H19.7912H19.7909H19.7907H19.7904H19.7901H19.7898H19.7895H19.7892H19.7889H19.7887H19.7884H19.7881H19.7878H19.7875H19.7872H19.787H19.7867H19.7864H19.7861H19.7859H19.7856H19.7853H19.785H19.7848H19.7845H19.7842H19.784H19.7837H19.7834H19.7832H19.7829H19.7826H19.7824H19.7821H19.7818H19.7816H19.7813H19.7811H19.7808H19.7805H19.7803H19.78H19.7798H19.7795H19.7793H19.779H19.7788H19.7785H19.7783H19.778H19.7778H19.7775H19.7773H19.7771H19.7768H19.7766H19.7763H19.7761H19.7759H19.7756H19.7754H19.7752H19.7749H19.7747H19.7745H19.7742H19.774H19.7738H19.7735H19.7733H19.7731H19.7729H19.7727H19.7724H19.7722H19.772H19.7718H19.7716H19.7713H19.7711H19.7709H19.7707H19.7705H19.7703H19.7701H19.7699H19.7697H19.7695H19.7693H19.7691H19.7689H19.7687H19.7685H19.7683H19.7681H19.7679H19.7677H19.7675H19.7673H19.7671H19.7669H19.7668H19.7666H19.7664H19.7662H19.766H19.7659H19.7657H19.7655H19.7653H19.7652H19.765H19.7648H19.7646H19.7645H19.7643H19.7641H19.764H19.7638H19.7637H19.7635H19.7633H19.7632H19.763H19.7629H19.7627H19.7626H19.7624H19.7623H19.7621H19.762H19.7618H19.7617H19.7616H19.7614H19.7613H19.7612H19.761H19.7609H19.7608H19.7606H19.7605H19.7604H19.7602H19.7601H19.76H19.7599H19.7598H19.2598V3.42952V7.99953C19.2598 8.0945 19.2122 8.17264 19.1291 8.21589C19.032 8.26637 18.942 8.25548 18.8753 8.20907L18.8754 8.20898L18.8665 8.20309L17.2865 7.1531L17.0098 6.9692L16.733 7.1531L15.1553 8.2016C15.0732 8.2545 14.9777 8.25966 14.8941 8.2178C14.8079 8.1694 14.7598 8.08376 14.7598 7.99953V5.06953V4.26891L14.0403 4.62025C13.5996 4.83549 13.1981 5.05155 12.8462 5.25856L12.8461 5.25841L12.8347 5.26552L12.6768 5.36421C12.6765 5.3644 12.6762 5.3646 12.6759 5.3648C12.284 5.60647 11.7091 5.60222 11.3443 5.37523C11.3442 5.37517 11.3441 5.37512 11.3441 5.37507L11.1055 5.22597C11.1053 5.22589 11.1052 5.22581 11.1051 5.22572C10.2145 4.66721 8.98172 4.13229 7.73369 3.71754C6.48559 3.30277 5.18416 2.99554 4.15042 2.91116L4.13012 2.9095H4.10974H4.10945H4.10916H4.10886H4.10857H4.10828H4.10799H4.1077H4.1074H4.10711H4.10682H4.10653H4.10624H4.10595H4.10566H4.10537H4.10508H4.10479H4.1045H4.10422H4.10393H4.10364H4.10335H4.10306H4.10277H4.10249H4.1022H4.10191H4.10163H4.10134H4.10105H4.10077H4.10048H4.1002H4.09991H4.09962H4.09934H4.09905H4.09877H4.09848H4.0982H4.09792H4.09763H4.09735H4.09707H4.09678H4.0965H4.09622H4.09593H4.09565H4.09537H4.09509H4.09481H4.09452H4.09424H4.09396H4.09368H4.0934H4.09312H4.09284H4.09256H4.09228H4.092H4.09172H4.09144H4.09116H4.09088H4.0906H4.09032H4.09005H4.08977H4.08949H4.08921H4.08894H4.08866H4.08838H4.0881H4.08783H4.08755H4.08727H4.087H4.08672H4.08645H4.08617H4.08589H4.08562H4.08534H4.08507H4.08479H4.08452H4.08425H4.08397H4.0837H4.08342H4.08315H4.08288H4.0826H4.08233H4.08206H4.08179H4.08151H4.08124H4.08097H4.0807H4.08043H4.08015H4.07988H4.07961H4.07934H4.07907H4.0788H4.07853H4.07826H4.07799H4.07772H4.07745H4.07718H4.07691H4.07664H4.07637H4.0761H4.07583H4.07557H4.0753H4.07503H4.07476H4.07449H4.07423H4.07396H4.07369H4.07342H4.07316H4.07289H4.07262H4.07236H4.07209H4.07183H4.07156H4.07129H4.07103H4.07076H4.0705H4.07023H4.06997H4.0697H4.06944H4.06917H4.06891H4.06865H4.06838H4.06812H4.06785H4.06759H4.06733H4.06707H4.0668H4.06654H4.06628H4.06601H4.06575H4.06549H4.06523H4.06497H4.0647H4.06444H4.06418H4.06392H4.06366H4.0634H4.06314H4.06288H4.06262H4.06236H4.0621H4.06184H4.06158H4.06132H4.06106H4.0608H4.06054H4.06028H4.06002H4.05976H4.0595H4.05924H4.05899H4.05873H4.05847H4.05821H4.05795H4.0577H4.05744H4.05718H4.05692H4.05667H4.05641H4.05615H4.0559H4.05564H4.05538H4.05513H4.05487H4.05462H4.05436H4.0541H4.05385H4.05359H4.05334H4.05308H4.05283H4.05257H4.05232H4.05206H4.05181H4.05155H4.0513H4.05105H4.05079H4.05054H4.05029H4.05003H4.04978H4.04953H4.04927H4.04902H4.04877H4.04851H4.04826H4.04801H4.04776H4.0475H4.04725H4.047H4.04675H4.0465H4.04624H4.04599H4.04574H4.04549H4.04524H4.04499H4.04474H4.04449H4.04424H4.04399H4.04374H4.04348H4.04323H4.04298H4.04273H4.04248H4.04224H4.04199H4.04174H4.04149H4.04124H4.04099H4.04074H4.04049H4.04024H4.03999H4.03975H4.0395H4.03925H4.039H4.03875H4.0385H4.03826H4.03801H4.03776H4.03751H4.03727H4.03702H4.03677H4.03652H4.03628H4.03603H4.03578H4.03554H4.03529H4.03504H4.0348H4.03455H4.03431H4.03406H4.03381H4.03357H4.03332H4.03308H4.03283H4.03258H4.03234H4.03209H4.03185H4.0316H4.03136H4.03111H4.03087H4.03062H4.03038H4.03014H4.02989H4.02965H4.0294H4.02916H4.02891H4.02867H4.02843H4.02818H4.02794H4.0277H4.02745H4.02721H4.02697H4.02672H4.02648H4.02624H4.02599H4.02575H4.02551H4.02527H4.02502H4.02478H4.02454H4.0243H4.02405H4.02381H4.02357H4.02333H4.02308H4.02284H4.0226H4.02236H4.02212H4.02188H4.02164H4.02139H4.02115H4.02091H4.02067H4.02043H4.02019H4.01995H4.01971H4.01947H4.01923H4.01898H4.01874H4.0185H4.01826H4.01802H4.01778H4.01754H4.0173H4.01706H4.01682H4.01658H4.01634H4.0161H4.01586H4.01562H4.01538H4.01515H4.01491H4.01467H4.01443H4.01419H4.01395H4.01371H4.01347H4.01323H4.01299H4.01275H4.01252H4.01228H4.01204H4.0118H4.01156H4.01132H4.01108H4.01085H4.01061H4.01037H4.01013H4.00989H4.00966H4.00942H4.00918H4.00894H4.0087H4.00847H4.00823H4.00799H4.00775H4.00752H4.00728H4.00704H4.0068H4.00657H4.00633H4.00609H4.00585H4.00562H4.00538H4.00514H4.00491H4.00467H4.00443H4.0042H4.00396H4.00372H4.00349H4.00325H4.00301H4.00278H4.00254H4.0023H4.00207H4.00183H4.00159H4.00136H4.00112H4.00088H4.00065H4.00041H4.00018H3.99994H3.9997H3.99947H3.99923H3.999H3.99876H3.99852H3.99829H3.99805H3.99782H3.99758H3.99735H3.99711H3.99688H3.99664H3.9964H3.99617H3.99593H3.9957H3.99546H3.99523H3.99499H3.99476H3.99452H3.99429H3.99405H3.99382H3.99358H3.99334H3.99311H3.99287H3.99264H3.9924H3.99217H3.99193H3.9917H3.99146H3.99123H3.99099H3.99076H3.99053H3.99029H3.99006H3.98982H3.98959H3.98935H3.98912H3.98888H3.98865H3.98841H3.98818H3.98794H3.98771H3.98747H3.98724H3.987H3.98677H3.98654H3.9863H3.98607H3.98583H3.9856H3.98536H3.98513H3.98489H3.98466H3.98442H3.98419H3.98396H3.98372H3.98349H3.98325H3.98302H3.98278H3.98255H3.98231H3.98208H3.98185H3.98161H3.98138H3.98114H3.98091H3.98067H3.98044H3.98021H3.97997H3.97974C3.53956 2.9095 3.12809 3.06311 2.80264 3.36026Z" fill="#292D32" stroke="#1F1F22"/>
<path d="M12 21.2402C11.59 21.2402 11.25 20.9002 11.25 20.4902V5.49023C11.25 5.08023 11.59 4.74023 12 4.74023C12.41 4.74023 12.75 5.08023 12.75 5.49023V20.4902C12.75 20.9102 12.41 21.2402 12 21.2402Z" fill="#292D32"/>
<path d="M19 8.75048C18.85 8.75048 18.71 8.71047 18.58 8.62047L17 7.57048L15.42 8.62047C15.19 8.77047 14.9 8.79045 14.65 8.66045C14.41 8.53045 14.25 8.28048 14.25 8.00048V3.92046C14.25 3.61046 14.44 3.34045 14.72 3.22045C16.1 2.67045 17.61 2.24046 18.88 2.04046C19.1 2.00046 19.32 2.0705 19.49 2.2105C19.66 2.3505 19.75 2.56051 19.75 2.78051V8.00048C19.75 8.28048 19.6 8.53045 19.35 8.66045C19.24 8.72045 19.12 8.75048 19 8.75048ZM17 5.92046C17.14 5.92046 17.29 5.96046 17.42 6.05046L18.25 6.60045V3.69048C17.45 3.87048 16.58 4.13048 15.75 4.44048V6.60045L16.58 6.05046C16.71 5.96046 16.86 5.92046 17 5.92046Z" fill="#292D32"/>
</svg>
